<?xml version="1.0" encoding="iso-8859-1"?>
<!-- Uploaded to: SVG Repo, www.svgrepo.com, Generator: SVG Repo Mixer Tools -->
<svg version="1.1" id="Layer_1" xmlns="http://www.w3.org/2000/svg" xmlns:xlink="http://www.w3.org/1999/xlink" 
	 viewBox="0 0 496.8 496.8" xml:space="preserve">
<path style="fill:#FFFFFF;" d="M35.2,416.4C22.4,416.4,8,403.6,8,390.8V106c0-12.8,14.4-25.6,27.2-25.6h426.4
	c12.8,0,19.2,12.8,19.2,25.6v284.8c0,12.8-6.4,25.6-19.2,25.6H35.2z"/>
<path style="fill:#E9F2F1;" d="M12,104.4c0-12.8,10.4-24,23.2-24h426.4c12.8,0,19.2,12.8,19.2,25.6v284.8c0,12.8-8,22.4-20.8,22.4"
	/>
<path style="fill:#B8BFBE;" d="M460.8,96.4c6.4,0,11.2,3.2,11.2,9.6v284.8c0,6.4-4.8,9.6-11.2,9.6H35.2c-6.4,0-11.2-3.2-11.2-9.6
	V106c0-6.4,4.8-9.6,11.2-9.6H464 M460.8,72.4H35.2C16,72.4,0,86.8,0,106v284.8c0,19.2,16,33.6,35.2,33.6h426.4
	c19.2,0,35.2-14.4,35.2-33.6V106C496,86.8,480,72.4,460.8,72.4L460.8,72.4z"/>
<rect x="48" y="128.4" style="fill:#1BCEB8;" width="88" height="248"/>
<polyline style="fill:#0DBFBA;" points="48,128.4 136,128.4 136,376.4 "/>
</svg>