<?xml version="1.0" encoding="utf-8"?>
<!-- Uploaded to: SVG Repo, www.svgrepo.com, Generator: SVG Repo Mixer Tools -->
<svg width="800px" height="800px" viewBox="0 0 1024 1024" class="icon"  version="1.1" xmlns="http://www.w3.org/2000/svg"><path d="M529.216 481.664V315.648H593.28a32.832 32.832 0 0 0 0-65.6H529.216v-48.96H593.28a32.832 32.832 0 0 0 0-65.6H529.216v-38.656a32.832 32.832 0 0 0-65.6 0v384.832A240.704 240.704 0 0 0 256 719.616 240.512 240.512 0 0 0 496.384 960a240.512 240.512 0 0 0 240.448-240.384 240.704 240.704 0 0 0-207.616-237.952z m-32.832 412.736a174.912 174.912 0 0 1-174.72-174.784 174.912 174.912 0 0 1 174.72-174.784 174.912 174.912 0 0 1 174.784 174.72 174.592 174.592 0 0 1-174.72 174.848z" fill="#000000" /></svg>